<svg width="33" height="21" viewBox="0 0 33 21" fill="none" xmlns="http://www.w3.org/2000/svg">
<g clip-path="url(#clip0_2304_240)">
<path d="M0.641602 20.6914H32.9993V0.691406H0.641602V20.6914Z" fill="black"/>
<path d="M1.01587 20.3327H32.654V1.05542H1.01587V20.3327Z" fill="white"/>
<path d="M7.99453 11.7337L8.6066 12.4168L9.23906 11.7382H9.74578V11.9479L8.9532 12.8011L9.74578 13.7133V11.7382H11.1764C11.4469 11.7382 11.8436 11.86 11.8436 12.4061C11.8436 13.1722 11.3216 13.1812 11.0358 13.1812H10.2929V13.923H9.23396L8.58706 13.1961L7.92445 13.9176H5.81895V11.7333H7.99453V11.7337V11.7337ZM14.4758 11.7337H16.2802V12.2046H15.028V12.6137H16.2453V13.0281H15.028V13.4607H16.2802V13.918H14.4758V11.7337V11.7337ZM12.657 13.9234H12.1049V11.7386H13.5401C13.8115 11.7386 14.2027 11.8559 14.2027 12.3235C14.2027 12.5877 14.1224 12.7821 13.8213 12.9286C14.0821 12.9579 14.1828 13.1239 14.1828 13.4747L14.2027 13.9234H13.6654L13.6505 13.523C13.6459 13.3381 13.5703 13.1528 13.38 13.1528H12.657V13.9234V13.9234ZM19.7453 12.5852C20.4245 12.6182 20.4806 12.948 20.4806 13.2989C20.4806 13.7083 20.1344 13.9279 19.7729 13.9279H18.6138V13.4603H19.5172C19.6706 13.4603 19.8986 13.4603 19.8986 13.2498C19.8986 13.1499 19.8583 13.0867 19.6952 13.0694C19.5685 13.0574 19.4414 13.0489 19.3142 13.0438C18.7013 13.0281 18.559 12.7321 18.559 12.3714C18.559 11.9619 18.855 11.7378 19.2165 11.7378H20.3756V12.2063H19.5274C19.3346 12.2088 19.126 12.184 19.126 12.3966C19.126 12.5303 19.2292 12.5571 19.3592 12.5699C19.4042 12.5703 19.7054 12.5852 19.7453 12.5852V12.5852ZM17.6776 12.5852C18.3564 12.6182 18.4129 12.948 18.4129 13.2989C18.4129 13.7083 18.0663 13.9279 17.7052 13.9279H16.5456V13.4603H17.4491C17.602 13.4603 17.8309 13.4603 17.8309 13.2498C17.8309 13.1499 17.7906 13.0867 17.6275 13.0694C17.5544 13.0595 17.286 13.0446 17.2465 13.0438C16.6336 13.0281 16.4913 12.7321 16.4913 12.3714C16.4913 11.9619 16.7873 11.7378 17.1484 11.7378H18.3079V12.2063H17.4597C17.2665 12.2088 17.0583 12.184 17.0583 12.3966C17.0583 12.5303 17.1611 12.5571 17.2919 12.5699C17.3365 12.5703 17.6377 12.5852 17.6776 12.5852V12.5852ZM10.4033 10.1681H9.85112V7.98331H11.2864C11.5574 7.98331 11.9494 8.10054 11.9494 8.5682C11.9494 8.83195 11.8691 9.02719 11.568 9.17331C11.8288 9.20261 11.9294 9.36854 11.9294 9.71939L11.9494 10.1681H11.4125L11.3972 9.7681C11.3921 9.58277 11.3174 9.39785 11.1262 9.39785H10.4037V10.1681H10.4033V10.1681ZM12.2306 10.1681H12.7823V7.98083H12.2306V10.1681ZM7.73076 7.98331H9.53468V8.45386H8.28379V8.86373H9.50028V9.27856H8.28379V9.7099H9.53468V10.1681H7.73076V7.98331V7.98331ZM3.70198 10.1681H4.81356V8.54673L5.55093 10.1681H6.05299L6.80777 8.57356V10.1681H7.35953V7.98331H6.47901L5.80153 9.44903L5.1266 7.98331H4.26096V10.0876L3.29719 7.98331H2.56747L1.58374 10.1681H2.16608L2.38143 9.68059H3.48281L3.70198 10.1681V10.1681ZM15.9586 9.68183H14.8577L14.6419 10.1693H13.9139C13.3018 10.1693 13.0304 9.67069 13.0436 9.06599C13.0623 8.16864 13.6081 7.98207 13.8591 7.98207H14.5795V8.45758H14.2384C13.8718 8.45758 13.586 8.49472 13.586 9.00655V9.16505C13.5885 9.55016 13.7962 9.64138 13.9292 9.66821C13.9619 9.67564 14.0222 9.67853 14.0443 9.67688L14.283 9.67564L15.0433 7.98331H15.7739L16.7147 10.0339V7.98207H17.5298L18.4609 9.49485V7.98207H19.0126V10.1693H18.2599L17.2665 8.56943V10.1693H16.1774L15.9586 9.68183V9.68183Z" fill="#9E9E9E"/>
<path d="M20.3804 11.3977V1.67297H1.63135V9.19268L2.33431 7.65225H3.52872L3.92034 8.56859V7.65225H5.37512L5.81686 8.55951L6.24841 7.65225H11.3773C11.5778 7.65225 11.8488 7.72077 11.9698 7.935V7.65225H13.0436V7.9837C13.1842 7.79878 13.3949 7.65225 13.806 7.65225H15.9944L16.3957 8.53928V7.65225H17.6908L18.1521 8.42288V7.65225H19.3363V10.4995H18.0621L17.5298 9.66117V10.4995H15.9141L15.6533 9.9435H15.141L14.9002 10.4995H13.8863C13.6654 10.4805 13.154 10.3922 13.0436 10.0611V10.4995H11.0965V9.8758C11.0965 9.78747 11.0163 9.68057 10.9058 9.68057H10.6951V10.4995H6.54956V9.85599L6.23864 10.4995H5.3955L5.07439 9.84609V10.4995H3.41828L3.19741 9.99262H2.6652L2.43455 10.4995H1.63135V19.6971H20.3804V14.06C20.2801 14.1677 20.1196 14.2552 19.8787 14.2552H18.3122V14.0406C18.192 14.1677 18.0217 14.2552 17.7503 14.2552H13.3346V13.6604C13.3244 13.582 13.3647 13.4165 13.1438 13.4165H12.9633V14.2552H11.7889V13.2889C11.6683 13.485 11.4079 13.4941 11.2371 13.504H10.6144V14.2552H9.0488L8.59687 13.7186L8.1152 14.2552H5.45582V11.3977H8.15555L8.62702 11.9144L9.10912 11.3977H11.2469C11.3973 11.4067 11.6831 11.4753 11.7889 11.6313V11.3977H13.6157C13.7763 11.3977 14.0872 11.4654 14.218 11.6701V11.3977H16.5062V11.6507C16.6264 11.4951 16.8175 11.3977 17.1081 11.3977H18.5735V11.6416C18.6839 11.4852 18.9753 11.3977 19.146 11.3977H20.3804V11.3977ZM25.5402 11.1492C25.5402 11.5145 24.1093 11.1116 24.1093 11.9999C24.1093 12.4056 24.4469 12.5893 24.8267 12.5893C25.1261 12.5893 25.3559 12.529 25.5827 12.3239L25.6643 12.5328H26.3859C26.3447 12.4568 26.3384 12.3577 26.3384 12.2463V11.3324C26.3384 10.866 26.2806 10.523 25.3291 10.523C24.5349 10.523 24.2316 10.7653 24.2316 11.1789H24.9991C25.0182 11.0113 25.1682 10.9894 25.2794 10.9894C25.3644 10.9894 25.5402 11.008 25.5402 11.1492V11.1492ZM29.6926 12.2694V12.5307H30.4096V9.84526H29.6123V10.774C29.4429 10.58 29.2666 10.5205 29.0134 10.5205C28.5335 10.5205 28.1614 10.9416 28.1614 11.5908C28.1614 12.1427 28.4685 12.5864 29.0746 12.5864C29.3324 12.5864 29.5049 12.5084 29.6926 12.2694V12.2694ZM27.9545 11.1929V10.5317C27.9201 10.528 27.8853 10.5205 27.8505 10.5205C27.5404 10.5205 27.3442 10.6658 27.2329 10.9721H27.2252V10.5767H26.5002V12.5303H27.2979V11.7609C27.2979 11.3395 27.4631 11.19 27.7893 11.19L27.9545 11.1929V11.1929ZM23.1909 10.8668C23.1638 10.5878 22.9832 10.4273 22.6995 10.4273C22.3809 10.4273 22.1889 10.6922 22.1889 11.2103C22.1889 11.5871 22.2735 11.9409 22.7335 11.9409C23.0257 11.9409 23.1638 11.744 23.1986 11.4864H24.0693C23.9895 12.1798 23.4785 12.5967 22.75 12.5967C21.8368 12.5967 21.2838 12.0535 21.2838 11.1801C21.2838 10.3113 21.8899 9.77055 22.6617 9.77055C23.5057 9.77055 23.978 10.1771 24.0511 10.8664H23.1909V10.8668V10.8668Z" fill="#9E9E9E"/>
<path d="M10.2933 12.7334H10.981C11.2065 12.7334 11.2868 12.6062 11.2868 12.4601C11.2868 12.3528 11.2142 12.2096 10.9831 12.2096H10.2933V12.7334ZM7.62333 12.2046H6.37158V12.6137H7.58807V13.0281H6.37158V13.4607H7.64372L8.25111 12.8015L7.7138 12.2067L7.62333 12.2046ZM12.6571 12.7045H13.3447C13.5703 12.7045 13.6506 12.6066 13.6506 12.4601C13.6506 12.3528 13.5779 12.2096 13.3469 12.2096H12.6571V12.7045V12.7045ZM10.4033 8.94916H11.091C11.317 8.94916 11.3968 8.85174 11.3968 8.70521C11.3968 8.59831 11.3242 8.45384 11.0931 8.45384H10.4033V8.94916V8.94916ZM3.26961 9.21043H2.59766L2.92726 8.44641L3.26961 9.21043ZM15.4022 8.44765L15.0735 9.21126H15.748L15.4022 8.44765Z" fill="white"/>
<path d="M31.8946 13.1292L25.1406 19.6921H26.0997L31.8946 14.0612V13.1292Z" fill="white"/>
<path d="M31.8947 14.9656L27.0312 19.6921H27.9895L31.8947 15.898V14.9656Z" fill="#9E9E9E"/>
<path d="M31.8947 16.8024L28.9202 19.6921H29.8801L31.8947 17.734V16.8024Z" fill="#9E9E9E"/>
<path d="M21.0664 18.6585C21.0667 18.5222 21.0946 18.3873 21.1486 18.2615C21.2025 18.1357 21.2814 18.0215 21.3808 17.9254C21.4802 17.8292 21.5982 17.7531 21.7279 17.7012C21.8576 17.6494 21.9965 17.6229 22.1368 17.6233C22.2767 17.6232 22.4153 17.6499 22.5446 17.7019C22.6739 17.7539 22.7914 17.8301 22.8903 17.9263C22.9892 18.0224 23.0677 18.1366 23.1212 18.2622C23.1747 18.3879 23.2022 18.5225 23.2021 18.6585C23.2027 18.7949 23.1756 18.93 23.1223 19.0562C23.0691 19.1823 22.9907 19.2971 22.8918 19.3937C22.7928 19.4904 22.6752 19.5671 22.5456 19.6195C22.416 19.6719 22.2771 19.699 22.1368 19.6991C21.9961 19.6992 21.8568 19.6724 21.7269 19.6202C21.5969 19.568 21.4788 19.4913 21.3794 19.3946C21.28 19.298 21.2011 19.1832 21.1474 19.0569C21.0937 18.9306 21.0662 18.7952 21.0664 18.6585V18.6585Z" fill="#9E9E9E"/>
<path d="M23.0735 18.6585C23.0735 18.539 23.0493 18.4206 23.0023 18.3102C22.9552 18.1998 22.8862 18.0995 22.7992 18.015C22.7123 17.9305 22.609 17.8635 22.4953 17.8178C22.3817 17.7721 22.2599 17.7487 22.1369 17.7488C22.0137 17.7485 21.8917 17.7717 21.7778 17.8173C21.6639 17.8629 21.5604 17.9298 21.4731 18.0143C21.3859 18.0988 21.3167 18.1992 21.2694 18.3098C21.2222 18.4203 21.1978 18.5388 21.1978 18.6585C21.1978 18.9002 21.2966 19.132 21.4724 19.303C21.6483 19.4739 21.8869 19.5699 22.1356 19.5699C22.3843 19.5699 22.6229 19.4739 22.7988 19.303C22.9747 19.132 23.0735 18.9002 23.0735 18.6585V18.6585Z" fill="white"/>
<path d="M22.6676 19.2402H22.4947L22.1528 18.7048H21.8852V19.2402H21.7395V18.0795H22.2594C22.3601 18.0795 22.4607 18.0852 22.5504 18.1368C22.64 18.186 22.6842 18.2892 22.6842 18.3866C22.6842 18.6152 22.5198 18.6994 22.307 18.7048L22.6676 19.2402V19.2402Z" fill="#9E9E9E"/>
<path d="M22.1092 18.5934C22.2769 18.5934 22.5369 18.6206 22.5369 18.3837C22.5369 18.2046 22.3746 18.1831 22.2264 18.1831H21.8857V18.5934H22.1092ZM25.5403 11.6676C25.5424 12.0333 25.4269 12.1489 25.147 12.1489C24.9894 12.1489 24.8934 12.0816 24.8934 11.9851C24.8938 11.7308 25.2799 11.7906 25.5403 11.6676V11.6676ZM29.6392 11.5723C29.6392 11.7993 29.5513 12.0267 29.2747 12.0267C29.0144 12.0267 28.9608 11.7886 28.9608 11.583C28.9608 11.3676 29.0335 11.1207 29.2985 11.1207C29.5627 11.1207 29.6392 11.3556 29.6392 11.5723Z" fill="white"/>
</g>
<defs>
<clipPath id="clip0_2304_240">
<rect width="32.36" height="20" fill="white" transform="translate(0.640137 0.691406)"/>
</clipPath>
</defs>
</svg>
