<svg width="300" height="21" viewBox="0 0 300 21" fill="none" xmlns="http://www.w3.org/2000/svg">
<path d="M2.56818 9.74998V15H1.22727V6.27271H2.52273V7.63635H2.63636C2.84091 7.19317 3.15152 6.83711 3.56818 6.56817C3.98485 6.29544 4.52273 6.15908 5.18182 6.15908C5.77273 6.15908 6.28977 6.28029 6.73295 6.52271C7.17614 6.76135 7.52083 7.12498 7.76705 7.61362C8.01326 8.09847 8.13636 8.71211 8.13636 9.45453V15H6.79545V9.54544C6.79545 8.85983 6.61742 8.32574 6.26136 7.94317C5.9053 7.5568 5.41667 7.36362 4.79545 7.36362C4.36742 7.36362 3.98485 7.45642 3.64773 7.64203C3.31439 7.82764 3.05114 8.09847 2.85795 8.45453C2.66477 8.81059 2.56818 9.24241 2.56818 9.74998ZM10.5866 15V6.27271H11.9276V15H10.5866ZM11.2685 4.81817C11.0071 4.81817 10.7817 4.72915 10.5923 4.55112C10.4067 4.37309 10.3139 4.15908 10.3139 3.90908C10.3139 3.65908 10.4067 3.44506 10.5923 3.26703C10.7817 3.089 11.0071 2.99998 11.2685 2.99998C11.5298 2.99998 11.7533 3.089 11.9389 3.26703C12.1283 3.44506 12.223 3.65908 12.223 3.90908C12.223 4.15908 12.1283 4.37309 11.9389 4.55112C11.7533 4.72915 11.5298 4.81817 11.2685 4.81817ZM17.929 15.1818C17.1108 15.1818 16.4063 14.9886 15.8153 14.6023C15.2244 14.2159 14.7699 13.6837 14.4517 13.0057C14.1335 12.3276 13.9744 11.553 13.9744 10.6818C13.9744 9.79544 14.1373 9.01324 14.4631 8.33521C14.7926 7.65339 15.2509 7.1212 15.8381 6.73862C16.429 6.35226 17.1184 6.15908 17.9062 6.15908C18.5199 6.15908 19.0729 6.27271 19.5653 6.49998C20.0578 6.72726 20.4612 7.04544 20.7756 7.45453C21.09 7.86362 21.285 8.34089 21.3608 8.88635H20.0199C19.9176 8.48862 19.6903 8.13635 19.3381 7.82953C18.9896 7.51892 18.5199 7.36362 17.929 7.36362C17.4063 7.36362 16.9479 7.49998 16.554 7.77271C16.1638 8.04165 15.8589 8.42233 15.6392 8.91476C15.4233 9.40339 15.3153 9.97726 15.3153 10.6363C15.3153 11.3106 15.4214 11.8977 15.6335 12.3977C15.8494 12.8977 16.1525 13.286 16.5426 13.5625C16.9366 13.839 17.3987 13.9773 17.929 13.9773C18.2775 13.9773 18.5938 13.9167 18.8778 13.7954C19.1619 13.6742 19.4025 13.5 19.5994 13.2727C19.7964 13.0454 19.9366 12.7727 20.0199 12.4545H21.3608C21.285 12.9697 21.0975 13.4337 20.7983 13.8466C20.5028 14.2557 20.1108 14.5814 19.6222 14.8238C19.1373 15.0625 18.5729 15.1818 17.929 15.1818ZM26.9801 15.1818C26.1392 15.1818 25.4138 14.9962 24.804 14.625C24.1979 14.25 23.7301 13.7273 23.4006 13.0568C23.0748 12.3826 22.9119 11.5985 22.9119 10.7045C22.9119 9.81059 23.0748 9.02271 23.4006 8.34089C23.7301 7.65529 24.1884 7.1212 24.7756 6.73862C25.3665 6.35226 26.0559 6.15908 26.8438 6.15908C27.2983 6.15908 27.7472 6.23483 28.1903 6.38635C28.6335 6.53786 29.0369 6.78408 29.4006 7.12498C29.7642 7.46211 30.054 7.90908 30.2699 8.46589C30.4858 9.02271 30.5938 9.70832 30.5938 10.5227V11.0909H23.8665V9.9318H29.2301C29.2301 9.43938 29.1316 8.99998 28.9347 8.61362C28.7415 8.22726 28.465 7.92233 28.1051 7.69885C27.7491 7.47536 27.3286 7.36362 26.8438 7.36362C26.3097 7.36362 25.8475 7.4962 25.4574 7.76135C25.071 8.02271 24.7737 8.36362 24.5653 8.78408C24.357 9.20453 24.2528 9.65529 24.2528 10.1363V10.9091C24.2528 11.5682 24.3665 12.1269 24.5938 12.5852C24.8248 13.0398 25.1449 13.3863 25.554 13.625C25.9631 13.8598 26.4384 13.9773 26.9801 13.9773C27.3324 13.9773 27.6506 13.928 27.9347 13.8295C28.2225 13.7273 28.4706 13.5757 28.679 13.375C28.8873 13.1704 29.0483 12.9167 29.1619 12.6136L30.4574 12.9773C30.321 13.4167 30.0919 13.803 29.7699 14.1363C29.4479 14.4659 29.0502 14.7235 28.5767 14.9091C28.1032 15.0909 27.571 15.1818 26.9801 15.1818Z" fill="#959595"/>
<path d="M32.4176 15V3.36362H37.0085C37.8911 3.36362 38.643 3.53218 39.2642 3.8693C39.8854 4.20264 40.3589 4.66665 40.6847 5.26135C41.0142 5.85226 41.179 6.53408 41.179 7.3068C41.179 8.07953 41.0123 8.76135 40.679 9.35226C40.3456 9.94317 39.8627 10.4034 39.2301 10.7329C38.6013 11.0625 37.84 11.2273 36.946 11.2273H34.0199V9.25567H36.5483C37.0218 9.25567 37.4119 9.17423 37.7188 9.01135C38.0294 8.84468 38.2604 8.61551 38.4119 8.32385C38.5672 8.02839 38.6449 7.68938 38.6449 7.3068C38.6449 6.92044 38.5672 6.58332 38.4119 6.29544C38.2604 6.00377 38.0294 5.77839 37.7188 5.6193C37.4081 5.45642 37.0142 5.37498 36.5369 5.37498H34.8778V15H32.4176ZM43.4389 15H40.8026L44.8196 3.36362H47.9901L52.0014 15H49.3651L46.4503 6.02271H46.3594L43.4389 15ZM43.2741 10.4261H49.5014V12.3466H43.2741V10.4261ZM51.5327 3.36362H54.2884L56.9418 8.37498H57.0554L59.7088 3.36362H62.4645L58.2202 10.8863V15H55.777V10.8863L51.5327 3.36362Z" fill="white"/>
<path fill-rule="evenodd" clip-rule="evenodd" d="M72.2028 13.8617L72.1995 13.8662L72.1963 13.8707C72.0183 14.1227 71.6196 14.1968 71.3077 13.9765C71.0581 13.8002 70.9831 13.4074 71.1957 13.097C71.5128 12.6927 71.7431 12.2201 71.8944 11.7581C72.0519 11.2771 72.1251 10.7305 72.1223 10.1944C72.1194 9.65838 72.0404 9.11262 71.8778 8.63333C71.7216 8.17295 71.4862 7.7028 71.1648 7.30194C70.9489 6.99377 71.0198 6.60017 71.2675 6.42122C71.577 6.19769 71.9765 6.26749 72.1571 6.51761L72.1604 6.5221L72.1637 6.5265C72.5638 7.05405 72.8919 7.64018 73.088 8.21523C73.2944 8.89171 73.4259 9.54608 73.4293 10.1875C73.4329 10.8624 73.3684 11.5013 73.1207 12.1302C72.851 12.8151 72.5898 13.34 72.2028 13.8617ZM75.0954 15.1145L75.1032 15.1034L75.1104 15.0919C75.9971 13.6713 76.5085 11.957 76.499 10.1711C76.4895 8.3857 75.9601 6.67737 75.0587 5.26646C74.8634 4.95669 74.9511 4.59045 75.2804 4.35261C75.5015 4.19288 75.9166 4.24944 76.1629 4.57952C77.1806 6.19416 77.7953 8.146 77.8061 10.1642C77.8172 12.2512 77.2238 14.1397 76.2224 15.7661C75.9908 16.085 75.6361 16.1743 75.3303 15.9936C74.9988 15.7507 74.9382 15.337 75.0954 15.1145ZM80.2861 2.45724L80.2948 2.47449L80.3049 2.49097C81.6839 4.73919 82.4502 7.33243 82.4652 10.1394C82.4801 12.945 81.7421 15.5451 80.3884 17.8072C80.1808 18.1409 79.8304 18.235 79.4752 18.0697C79.1519 17.859 79.065 17.5098 79.2339 17.1571C80.3852 15.1125 81.1011 12.703 81.0875 10.1467C81.074 7.60176 80.4085 5.19618 79.1569 3.15136C78.9875 2.80221 79.0714 2.45448 79.3909 2.24137C79.7763 2.05725 80.1518 2.1922 80.2861 2.45724ZM84.3691 0.317663L84.3751 0.329447L84.3817 0.340883C86.0528 3.22941 87.0346 6.53184 87.0536 10.1149C87.0727 13.6943 86.1281 17.0039 84.491 19.9079C84.2831 20.2378 83.9343 20.3302 83.5808 20.1656C83.2585 19.9556 83.1712 19.608 83.3379 19.2564C84.915 16.5648 85.7643 13.4463 85.7466 10.1219C85.7288 6.78887 84.7717 3.68251 83.2427 1.0174C83.0511 0.628355 83.1861 0.247321 83.4535 0.111831C83.846 -0.0870443 84.2325 0.0479557 84.3691 0.317663Z" fill="white"/>
</svg>

